<svg width="18" height="18" viewBox="0 0 18 18" fill="none" xmlns="http://www.w3.org/2000/svg">
<circle cx="9" cy="9" r="7.5" fill="#F5222D"/>
<path fill-rule="evenodd" clip-rule="evenodd" d="M10.5082 11.3571C10.7425 11.5914 11.1224 11.5914 11.3568 11.3571C11.5911 11.1228 11.5911 10.7429 11.3568 10.5085L9.84834 9.00012L11.3569 7.49152C11.5913 7.2572 11.5913 6.87731 11.3569 6.64299C11.1226 6.40868 10.7427 6.40868 10.5084 6.64299L8.99981 8.15159L7.49124 6.64302C7.25693 6.4087 6.87703 6.4087 6.64272 6.64302C6.4084 6.87733 6.4084 7.25723 6.64272 7.49155L8.15129 9.00012L6.64289 10.5085C6.40858 10.7428 6.40858 11.1227 6.64289 11.357C6.87721 11.5914 7.25711 11.5914 7.49142 11.357L8.99981 9.84865L10.5082 11.3571Z" fill="white"/>
</svg>
