<svg width="149" height="132" viewBox="0 0 149 132" fill="none" xmlns="http://www.w3.org/2000/svg">
<path d="M74.4034 129.98C113.872 129.98 145.868 101.396 145.868 66.1358C145.868 30.8757 113.872 2.29171 74.4034 2.29171C34.9347 2.29171 2.93903 30.8757 2.93903 66.1358C2.93903 101.396 34.9347 129.98 74.4034 129.98Z" fill="#FA415B"/>
<path d="M74.4035 116.485C105.53 116.485 130.763 93.943 130.763 66.1358C130.763 38.3286 105.53 15.7863 74.4035 15.7863C43.2772 15.7863 18.0444 38.3286 18.0444 66.1358C18.0444 93.943 43.2772 116.485 74.4035 116.485Z" fill="#EDF5FF"/>
<path d="M107.098 46.4696L96.417 36.9277L74.4034 56.5939L52.3899 36.9277L41.7091 46.4696L63.7226 66.1358L41.7091 85.802L52.3899 95.3439L74.4034 75.6777L96.417 95.3439L107.098 85.802L85.0842 66.1358L107.098 46.4696Z" fill="#FA415B"/>
<path d="M139.331 44.5184C139.427 44.7645 139.578 44.9909 139.773 45.1843C139.969 45.3778 140.206 45.5345 140.47 45.6452C140.734 45.756 141.02 45.8185 141.312 45.8292C141.603 45.8398 141.894 45.7985 142.168 45.7074C142.441 45.6164 142.692 45.4775 142.904 45.299C143.117 45.1204 143.288 44.9058 143.406 44.6676C143.525 44.4294 143.589 44.1725 143.595 43.9119C143.601 43.6512 143.549 43.3921 143.442 43.1497C142.878 41.7989 142.258 40.4514 141.601 39.1454C141.362 38.6713 140.922 38.3015 140.378 38.1173C139.834 37.933 139.23 37.9495 138.699 38.1631C138.168 38.3767 137.754 38.7699 137.548 39.2562C137.342 39.7424 137.36 40.282 137.599 40.7561C138.22 41.9814 138.8 43.2483 139.331 44.5184Z" fill="black"/>
<path d="M5.13311 66.1358C5.13464 52.8338 9.93349 39.8861 18.8184 29.2118C27.7033 18.5375 40.2015 10.7047 54.4605 6.87417C68.7196 3.04366 83.9806 3.41933 97.9819 7.94553C111.983 12.4717 123.98 20.9075 132.193 32.0027C132.514 32.4361 133.015 32.7377 133.586 32.8412C134.156 32.9447 134.749 32.8415 135.234 32.5544C135.719 32.2673 136.057 31.8197 136.173 31.3102C136.288 30.8008 136.173 30.271 135.852 29.8376C125.705 16.1496 110.199 6.34309 92.3765 2.34259C74.5536 -1.65791 55.7007 0.436383 39.5173 8.2145C23.3339 15.9926 10.9884 28.893 4.90345 44.3841C-1.18148 59.8752 -0.566541 76.8387 6.6276 91.9456C6.86174 92.4158 7.29348 92.7849 7.82959 92.9731C8.36571 93.1614 8.9632 93.1538 9.49307 92.9519C10.0229 92.75 10.4427 92.37 10.6616 91.894C10.8806 91.418 10.8813 90.8842 10.6635 90.4077C6.99597 82.736 5.11435 74.4778 5.13311 66.1358Z" fill="black"/>
<path d="M146.728 53.6112C146.679 53.3539 146.573 53.108 146.416 52.8879C146.259 52.6678 146.055 52.4778 145.814 52.3292C145.574 52.1806 145.303 52.0764 145.018 52.0225C144.732 51.9687 144.437 51.9664 144.15 52.0158C143.863 52.0652 143.59 52.1652 143.347 52.31C143.104 52.4549 142.896 52.6416 142.735 52.8593C142.574 53.0769 142.463 53.3211 142.409 53.5776C142.355 53.834 142.359 54.0975 142.42 54.3526C144.353 63.311 144.048 72.5402 141.525 81.3808C139.003 90.2214 134.325 98.4549 127.827 105.493C121.329 112.531 113.17 118.2 103.935 122.094C94.6998 125.988 84.6157 128.012 74.4034 128.02C62.5411 128.056 50.8695 125.355 40.5194 120.177C30.1692 114.999 21.4916 107.521 15.3274 98.4667C15.0223 98.0239 14.5329 97.7075 13.9667 97.5872C13.4005 97.4668 12.804 97.5523 12.3084 97.8249C11.8127 98.0974 11.4586 98.5347 11.3239 99.0405C11.1892 99.5463 11.2849 100.079 11.59 100.522C19.9777 112.747 32.605 122.19 47.5513 127.415C62.4976 132.64 78.9452 133.361 94.3925 129.469C109.84 125.577 123.442 117.284 133.129 105.852C142.817 94.4201 148.06 80.4743 148.062 66.1358C148.063 61.9326 147.616 57.7388 146.728 53.6112Z" fill="black"/>
<path d="M74.4034 13.8284C62.8232 13.8284 51.503 16.8962 41.8744 22.6438C32.2458 28.3914 24.7412 36.5607 20.3097 46.1186C15.8781 55.6766 14.7186 66.1938 16.9778 76.3405C19.237 86.4871 24.8134 95.8074 33.0018 103.123C41.1903 110.438 51.623 115.42 62.9807 117.438C74.3385 119.456 86.111 118.421 96.8098 114.461C107.509 110.502 116.653 103.798 123.087 95.1962C129.52 86.5943 132.954 76.4812 132.954 66.1358C132.936 52.268 126.761 38.9729 115.785 29.1669C104.808 19.3609 89.9264 13.8447 74.4034 13.8284ZM74.4034 114.523C63.6911 114.523 53.2193 111.685 44.3123 106.368C35.4054 101.051 28.4632 93.4943 24.3638 84.6527C20.2644 75.8112 19.1918 66.0821 21.2816 56.6959C23.3715 47.3098 28.53 38.688 36.1047 31.921C43.6795 25.1539 53.3303 20.5455 63.8368 18.6784C74.3433 16.8114 85.2336 17.7696 95.1305 21.4319C105.027 25.0943 113.486 31.2962 119.438 39.2534C125.389 47.2106 128.566 56.5657 128.566 66.1358C128.549 78.9641 122.837 91.2626 112.683 100.334C102.529 109.405 88.7629 114.507 74.4034 114.523Z" fill="black"/>
<path d="M109.292 46.4685C109.292 45.9489 109.061 45.4506 108.65 45.0829L97.9741 35.541C97.5627 35.1737 97.0049 34.9674 96.4232 34.9674C95.8416 34.9674 95.2838 35.1737 94.8723 35.541L74.4034 53.8228L53.9408 35.541C53.5294 35.1737 52.9715 34.9674 52.3899 34.9674C51.8082 34.9674 51.2504 35.1737 50.839 35.541L40.1569 45.0785C39.746 45.4463 39.5153 45.9448 39.5153 46.4645C39.5153 46.9842 39.746 47.4827 40.1569 47.8506L60.6196 66.1358L40.1569 84.4165C39.746 84.7844 39.5153 85.2829 39.5153 85.8026C39.5153 86.3223 39.746 86.8208 40.1569 87.1887L50.839 96.7306C51.2504 97.0979 51.8082 97.3042 52.3899 97.3042C52.9715 97.3042 53.5294 97.0979 53.9408 96.7306L74.4034 78.4487L94.8661 96.7306C95.2775 97.0979 95.8353 97.3042 96.417 97.3042C96.9986 97.3042 97.5564 97.0979 97.9679 96.7306L108.65 87.1887C109.061 86.8208 109.292 86.3223 109.292 85.8026C109.292 85.2829 109.061 84.7844 108.65 84.4165L88.1873 66.1358L108.65 47.8551C109.061 47.4872 109.292 46.9884 109.292 46.4685ZM83.5333 64.7503C83.3294 64.9321 83.1677 65.1481 83.0574 65.3858C82.947 65.6236 82.8902 65.8784 82.8902 66.1358C82.8902 66.3932 82.947 66.648 83.0574 66.8858C83.1677 67.1235 83.3294 67.3395 83.5333 67.5213L103.992 85.8031L96.417 92.5695L75.9543 74.291C75.5429 73.9237 74.9851 73.7174 74.4034 73.7174C73.8218 73.7174 73.264 73.9237 72.8525 74.291L52.3899 92.5695L44.8147 85.8031L65.276 67.5213C65.4799 67.3395 65.6417 67.1235 65.752 66.8858C65.8624 66.648 65.9192 66.3932 65.9192 66.1358C65.9192 65.8784 65.8624 65.6236 65.752 65.3858C65.6417 65.1481 65.4799 64.9321 65.276 64.7503L44.8147 46.4685L52.3899 39.7021L72.8525 57.9806C73.2716 58.3347 73.8266 58.5321 74.4034 58.5321C74.9803 58.5321 75.5353 58.3347 75.9543 57.9806L96.417 39.7021L103.992 46.4685L83.5333 64.7503Z" fill="black"/>
</svg>
