<?xml version="1.0" encoding="utf-8"?>
<!-- Generator: Adobe Illustrator 27.5.0, SVG Export Plug-In . SVG Version: 6.00 Build 0)  -->
<svg version="1.1" xmlns="http://www.w3.org/2000/svg" xmlns:xlink="http://www.w3.org/1999/xlink" x="0px" y="0px"
	 viewBox="0 0 500 500" style="enable-background:new 0 0 500 500;" xml:space="preserve">
<g id="Background_Complete">
	<g>
		<rect y="382.398" style="fill:#EBEBEB;" width="500" height="0.25"/>
		<rect x="104.545" y="389.208" style="fill:#EBEBEB;" width="33.122" height="0.25"/>
		<rect x="171.14" y="398.369" style="fill:#EBEBEB;" width="40.749" height="0.25"/>
		<rect x="52.459" y="395.236" style="fill:#EBEBEB;" width="51.085" height="0.25"/>
		<rect x="356.762" y="390.888" style="fill:#EBEBEB;" width="93.14" height="0.25"/>
		<rect x="341.525" y="390.888" style="fill:#EBEBEB;" width="6.333" height="0.25"/>
		<rect x="277.213" y="395.111" style="fill:#EBEBEB;" width="42.231" height="0.25"/>
		<path style="fill:#EBEBEB;" d="M237.014,337.8H43.915c-3.147,0-5.708-2.561-5.708-5.708V60.66c0-3.147,2.561-5.708,5.708-5.708
			h193.099c3.146,0,5.707,2.561,5.707,5.708v271.432C242.721,335.239,240.16,337.8,237.014,337.8z M43.915,55.203
			c-3.01,0-5.458,2.448-5.458,5.458v271.432c0,3.01,2.448,5.458,5.458,5.458h193.099c3.009,0,5.457-2.448,5.457-5.458V60.66
			c0-3.009-2.448-5.458-5.457-5.458H43.915z"/>
		<path style="fill:#EBEBEB;" d="M453.31,337.8H260.212c-3.147,0-5.707-2.561-5.707-5.708V60.66c0-3.147,2.561-5.708,5.707-5.708
			H453.31c3.148,0,5.708,2.561,5.708,5.708v271.432C459.019,335.239,456.458,337.8,453.31,337.8z M260.212,55.203
			c-3.009,0-5.457,2.448-5.457,5.458v271.432c0,3.01,2.448,5.458,5.457,5.458H453.31c3.01,0,5.458-2.448,5.458-5.458V60.66
			c0-3.009-2.448-5.458-5.458-5.458H260.212z"/>
	</g>
	<g>
		<g>
			<g>
				
					<rect x="89.429" y="241.436" transform="matrix(-1.836970e-16 1 -1 -1.836970e-16 471.8271 91.7935)" style="fill:#F0F0F0;" width="201.176" height="80.748"/>
				
					<rect x="160.407" y="179.936" transform="matrix(-1.836970e-16 1 -1 -1.836970e-16 405.8947 25.8611)" style="fill:#E6E6E6;" width="59.22" height="71.884"/>
				
					<rect x="160.407" y="244.471" transform="matrix(-1.836970e-16 1 -1 -1.836970e-16 470.43 90.3964)" style="fill:#E6E6E6;" width="59.22" height="71.884"/>
				
					<rect x="160.407" y="309.007" transform="matrix(-1.836970e-16 1 -1 -1.836970e-16 534.9652 154.9316)" style="fill:#E6E6E6;" width="59.22" height="71.884"/>
				
					<rect x="182.212" y="201.741" transform="matrix(-1.836970e-16 1 -1 -1.836970e-16 427.6994 4.0564)" style="fill:#E0E0E0;" width="59.22" height="28.274"/>
				
					<rect x="182.212" y="266.276" transform="matrix(-1.836970e-16 1 -1 -1.836970e-16 492.2347 68.5917)" style="fill:#E0E0E0;" width="59.22" height="28.274"/>
				<g>
					<g>
						<rect x="165.441" y="286.368" style="fill:#FAFAFA;" width="19.585" height="23.655"/>
						
							<rect x="157.172" y="286.368" transform="matrix(-1 -1.224647e-16 1.224647e-16 -1 322.613 596.391)" style="fill:#F0F0F0;" width="8.269" height="23.655"/>
					</g>
					<g>
						<rect x="197.082" y="286.368" style="fill:#FAFAFA;" width="19.585" height="23.655"/>
						
							<rect x="188.813" y="286.368" transform="matrix(-1 -1.224647e-16 1.224647e-16 -1 385.8954 596.391)" style="fill:#F0F0F0;" width="8.269" height="23.655"/>
					</g>
					<g>
						<rect x="181.607" y="262.713" style="fill:#FAFAFA;" width="19.585" height="23.655"/>
						
							<rect x="173.338" y="262.713" transform="matrix(-1 -1.224647e-16 1.224647e-16 -1 354.9458 549.0807)" style="fill:#F0F0F0;" width="8.269" height="23.655"/>
					</g>
				</g>
				
					<rect x="182.212" y="330.811" transform="matrix(-1.836970e-16 1 -1 -1.836970e-16 556.7699 133.1269)" style="fill:#E0E0E0;" width="59.22" height="28.274"/>
				
					<rect x="38.092" y="270.848" transform="matrix(-1.836970e-16 1 -1 -1.836970e-16 420.4904 143.1302)" style="fill:#F5F5F5;" width="201.176" height="21.925"/>
			</g>
			<rect x="162.712" y="323.876" style="fill:#F0F0F0;" width="58.368" height="50.682"/>
			
				<rect x="154.075" y="323.876" transform="matrix(-1 -1.224647e-16 1.224647e-16 -1 316.7865 698.4342)" style="fill:#E0E0E0;" width="8.637" height="50.682"/>
			<rect x="162.712" y="194.805" style="fill:#F0F0F0;" width="58.368" height="50.682"/>
			
				<rect x="154.075" y="194.805" transform="matrix(-1 -1.224647e-16 1.224647e-16 -1 316.7865 440.2932)" style="fill:#E0E0E0;" width="8.637" height="50.682"/>
		</g>
		<g>
			
				<rect x="209.075" y="165.474" transform="matrix(-1.836970e-16 1 -1 -1.836970e-16 591.4738 -121.4087)" style="fill:#FAFAFA;" width="294.732" height="139.118"/>
			
				<rect x="139.256" y="234.772" transform="matrix(-1.836970e-16 1 -1 -1.836970e-16 521.6543 -51.5892)" style="fill:#F0F0F0;" width="294.732" height="0.521"/>
			<rect x="296.942" y="97.343" style="fill:#E6E6E6;" width="113.56" height="285.056"/>
			<rect x="299.783" y="97.343" style="fill:#F0F0F0;" width="116.799" height="285.056"/>
			<polygon style="fill:#E0E0E0;" points="408.07,242.243 408.07,245.831 411.66,242.243 			"/>
			
				<rect x="224.166" y="189.983" transform="matrix(-1.836970e-16 1 -1 -1.836970e-16 598.0528 -118.3115)" style="fill:#FAFAFA;" width="268.032" height="99.775"/>
			<path style="fill:#F5F5F5;" d="M389.52,240.78c-1.524,0-2.76,1.236-2.76,2.76c0,1.524,1.236,2.759,2.76,2.759h17.469v-5.519
				H389.52z"/>
			<polygon style="fill:#FFFFFF;" points="330.18,373.887 360.631,105.855 381.145,105.855 350.694,373.887 			"/>
			<polygon style="fill:#FFFFFF;" points="355.101,373.887 385.552,105.855 393.55,105.855 363.099,373.887 			"/>
			
				<rect x="273.513" y="239.33" transform="matrix(-1.836970e-16 1 -1 -1.836970e-16 647.4 -167.6587)" style="fill:#E6E6E6;" width="268.032" height="1.081"/>
			<path style="fill:#EBEBEB;" d="M410.714,242.63h-17.469c-1.524,0-2.76-1.236-2.76-2.76l0,0c0-1.524,1.236-2.76,2.76-2.76h17.469
				c1.524,0,2.76,1.236,2.76,2.76l0,0C413.473,241.395,412.238,242.63,410.714,242.63z"/>
		</g>
		<g>
			<g>
				<g>
					<rect x="63.968" y="121.846" style="fill:#E0E0E0;" width="49.086" height="78.088"/>
					<rect x="65.261" y="121.846" style="fill:#F5F5F5;" width="50.753" height="78.088"/>
					
						<rect x="57.288" y="139.766" transform="matrix(6.123234e-17 -1 1 6.123234e-17 -70.2529 251.5282)" style="fill:#FFFFFF;" width="66.7" height="42.25"/>
				</g>
			</g>
			<g>
				<g>
					<rect x="133.284" y="84.169" style="fill:#E0E0E0;" width="49.086" height="78.088"/>
					<rect x="134.576" y="84.169" style="fill:#F5F5F5;" width="50.753" height="78.088"/>
					
						<rect x="126.603" y="102.088" transform="matrix(6.123234e-17 -1 1 6.123234e-17 36.7397 283.1659)" style="fill:#FFFFFF;" width="66.7" height="42.249"/>
				</g>
			</g>
		</g>
	</g>
</g>
<g id="Background_Simple" style="display:none;">
	<g style="display:inline;">
		<path style="fill:#407BFF;" d="M353.128,174.962c-19.47-45.983-69.484-79.136-117.939-93.708
			C109.737,42.978,52.638,220.61,92.025,259.411c33.435,42.079,74.599,16.516,105.064,25.828
			C368.555,338.351,369.955,213.223,353.128,174.962z"/>
		<path style="opacity:0.9;fill:#FFFFFF;" d="M353.128,174.962c-19.47-45.983-69.484-79.136-117.939-93.708
			C109.737,42.978,52.638,220.61,92.025,259.411c33.435,42.079,74.599,16.516,105.064,25.828
			C368.555,338.351,369.955,213.223,353.128,174.962z"/>
	</g>
</g>
<g id="Shadow_1_">
	<ellipse id="_x3C_Path_x3E__120_" style="fill:#F5F5F5;" cx="250" cy="416.238" rx="193.889" ry="11.323"/>
</g>
<g id="Character">
	<g>
		<path style="fill:#263238;" d="M163.632,125.235c2.15,2.844,2.412,6.35,0.098,11.947c-0.959,2.319-2.298,4.585-5.202,0.696
			c-2.905-3.889-5.389-10.957-1.029-11.623C161.858,125.589,163.632,125.235,163.632,125.235z"/>
		<polygon style="fill:#FFC3BD;" points="162.704,406.887 170.133,406.887 170.452,389.682 163.023,389.682 		"/>
		<polygon style="fill:#FFC3BD;" points="107.539,393.694 114.739,395.524 122.186,379.665 114.986,377.836 		"/>
		<path style="fill:#263238;" d="M115.696,394.763l-7.905-2.677c-0.288-0.097-0.6,0.02-0.75,0.282l-3.354,5.836
			c-0.348,0.605-0.031,1.397,0.637,1.611c2.775,0.887,4.166,1.177,7.643,2.354c2.139,0.724,8.238,3.284,11.191,4.284
			c2.889,0.978,4.257-1.814,3.131-2.49c-5.049-3.032-8.34-6.216-9.586-8.377C116.478,395.196,116.117,394.905,115.696,394.763z"/>
		<path style="fill:#263238;" d="M170.063,406.026h-8.113c-0.304,0-0.561,0.211-0.62,0.507l-1.306,6.603
			c-0.135,0.685,0.4,1.333,1.101,1.322c2.925-0.05,7.15-0.221,10.829-0.221c4.301,0,5.201,0.235,10.245,0.235
			c3.05,0,3.821-3.083,2.537-3.363c-5.843-1.271-7.771-1.408-12.869-4.504C171.313,406.269,170.705,406.026,170.063,406.026z"/>
		<path style="fill:#FFC3BD;" d="M168.133,171.909l10.138-3.252c0,0,10.475,24.263,13.984,25.769
			c4.775,2.049,8.514,5.418,14.647,6.034c0.826,0.952,2.187,4.001,2.057,5.136c-8.232,3.106-20.906-0.183-24.401-3.417
			C176.588,194.806,168.133,171.909,168.133,171.909z"/>
		<path style="fill:#407BFF;" d="M165.762,166.33c-2.852,6.504,8.594,27.143,8.594,27.143l15.157-7.02c0,0-2.877-10.083-7.514-18.14
			C177.238,160.04,168.892,159.192,165.762,166.33z"/>
		<path style="opacity:0.5;" d="M165.762,166.33c-2.852,6.504,8.594,27.143,8.594,27.143l15.157-7.02c0,0-2.877-10.083-7.514-18.14
			C177.238,160.04,168.892,159.192,165.762,166.33z"/>
		<path style="fill:#FFC3BD;" d="M205.662,200.436l5.719-2.966l2.908,8.405c0,0-1.867,0.831-7.208,0.172L205.662,200.436z"/>
		<polygon style="fill:#FFC3BD;" points="217.08,195.333 218.905,202.516 214.288,205.875 211.381,197.47 		"/>
		<g>
			<polygon style="opacity:0.2;" points="170.45,389.687 170.288,398.555 162.855,398.555 163.018,389.687 			"/>
			<polygon style="opacity:0.2;" points="114.982,377.84 122.185,379.67 118.343,387.843 111.14,386.013 			"/>
		</g>
		<path style="fill:#407BFF;" d="M175.47,162.114c0,0,9.318,25.529,2.014,67.308c-11.973,0-33.91,0-39.736,0
			c-0.423-6.1,2.68-38.95-3.908-67.691c0,0,6.777-1.367,13.26-1.68c5.071-0.245,12.418-0.407,16.892,0.001
			C169.89,160.589,175.47,162.114,175.47,162.114z"/>
		<path style="opacity:0.5;" d="M175.47,162.114c0,0,9.318,25.529,2.014,67.308c-11.973,0-33.91,0-39.736,0
			c-0.423-6.1,2.68-38.95-3.908-67.691c0,0,6.777-1.367,13.26-1.68c5.071-0.245,12.418-0.407,16.892,0.001
			C169.89,160.589,175.47,162.114,175.47,162.114z"/>
		<path style="opacity:0.2;" d="M142.645,168.827c0.778,4.73-0.437,16.047-4.621,29.124c-0.261-10.065-1.152-21.734-3.563-33.361
			l-0.001-0.056C137.072,164.266,141.903,164.393,142.645,168.827z"/>
		<path style="fill:#FFC3BD;" d="M148.921,144.253c1.199,5.435,1.893,12.171-1.821,15.798c0,0,2.319,5.513,12.418,5.513
			c9.229,0,4.473-5.512,4.473-5.512c-6.096-1.447-5.964-8.942-5.012-13.165L148.921,144.253z"/>
		<path style="fill:#FFFFFF;" d="M159.519,165.564c-1.786,2.711-1.81,5.22-1.81,5.22s-12.757-4.462-12.326-10.999
			c0,0,1.769-1.066,2.888-1.932C148.27,157.853,148.808,162.946,159.519,165.564z"/>
		<path style="fill:#FFFFFF;" d="M159.519,165.564c1.919,2.711,2.601,4.827,2.601,4.827s5.635-3.877,3.756-10.34
			c0,0-1.634-0.677-3.263-1.03C162.613,159.022,163.474,164.165,159.519,165.564z"/>
		<path style="opacity:0.2;" d="M158.986,146.891c-0.568,2.474-0.845,6.074,0.259,8.923c-0.895-0.132-1.815-0.406-2.728-0.831
			c-3.457-1.612-5.202-4.147-7.049-7.909c-0.155-0.963-0.341-1.907-0.545-2.819L158.986,146.891z"/>
		<g>
			<path style="fill:#FFC3BD;" d="M168.271,142.283c-0.821,1.801-2.395,3.033-3.926,3.549c-2.303,0.776-3.621-1.295-3.121-3.57
				c0.45-2.048,2.191-4.92,4.569-4.709C168.137,137.761,169.21,140.224,168.271,142.283z"/>
			<path style="opacity:0.2;" d="M168.271,142.283c-0.821,1.801-2.395,3.033-3.926,3.549c-2.303,0.776-3.621-1.295-3.121-3.57
				c0.45-2.048,2.191-4.92,4.569-4.709C168.137,137.761,169.21,140.224,168.271,142.283z"/>
		</g>
		<path style="fill:#FFC3BD;" d="M145.545,136.446c1.356,7.317,1.784,11.661,5.918,15.056c6.219,5.106,14.764,0.794,15.588-6.738
			c0.742-6.779-1.601-17.606-9.07-19.79C150.622,122.82,144.189,129.129,145.545,136.446z"/>
		<path style="fill:#263238;" d="M150.595,128.095c1.689,3.14,0.803,5.183-1.511,10.78c-0.959,2.319-2.582,4.783-5.202,0.696
			c-2.473-3.858-6.244-11.039-2.971-11.784C145.211,126.806,150.595,128.095,150.595,128.095z"/>
		<path style="fill:#263238;" d="M148.493,130.136c3.038,0.981,5.378-0.509,5.945-1.944c2.398,1.059,5.548,1.202,6.568-0.164
			c1.959,0.002,4.141,0.364,5.099-2.495c0.958-2.859-0.221-5.434-3.366-6.88c-0.07,0.634-1.699,1.464-3.226,0.409
			c-1.527-1.054-4.335-0.783-5.54,0.338c-3.269-0.849-5.586-1.318-7.46,0.83c-3.116-0.648-6.906,2.174-6.385,4.616
			c-2.439,3.033-0.078,5.493,2.419,5.92C143.05,132.043,147.827,131.408,148.493,130.136z"/>
		<path style="fill:#FFC3BD;" d="M143.269,144.907c1.239,1.585,3.074,2.458,4.692,2.644c2.433,0.28,3.212-2.012,2.17-4.125
			c-0.938-1.902-3.336-4.34-5.602-3.642C142.296,140.473,141.852,143.095,143.269,144.907z"/>
		<path style="fill:#263238;" d="M151.367,229.421c0,0,0.791,9.339,1.795,22.004c1.146,14.348,2.555,32.974,3.397,47.17
			c0,0.071,0.01,0.132,0.01,0.193c0.162,2.697,0.304,5.222,0.416,7.534c1.125,23.149,3.447,90.518,3.447,90.518h12.584
			c0,0,6.337-68.747,6.601-92.313c0.253-22.652-2.13-75.105-2.13-75.105H151.367z"/>
		<path style="fill:#407BFF;" d="M159.504,392.982c-0.058,0,0.101,4.112,0.101,4.112h14.506l0.497-4.619L159.504,392.982z"/>
		<path style="opacity:0.2;" d="M153.162,251.425c1.146,14.348,2.555,32.974,3.397,47.17c0,0.071,0.01,0.132,0.01,0.193
			c3.082-13.455,4.33-30.197,3.894-57.756L153.162,251.425z"/>
		<path style="fill:#263238;" d="M163.388,229.421c0,0-7.039,53.68-11.146,74.95c-4.498,23.292-30.16,82.65-30.16,82.65
			l-13.188-3.351c0,0,18.786-54.126,21.113-77.188c2.525-25.029,7.742-77.062,7.742-77.062H163.388z"/>
		<path style="fill:#407BFF;" d="M109.682,380.212c-0.056-0.014-1.503,3.541-1.503,3.541l14.496,3.683l2.254-3.932L109.682,380.212z
			"/>
		<path style="fill:#263238;" d="M156.813,137.349c0.074,0.6,0.447,1.053,0.834,1.012c0.386-0.041,0.64-0.559,0.566-1.159
			c-0.074-0.6-0.448-1.053-0.834-1.012C156.992,136.23,156.738,136.749,156.813,137.349z"/>
		<path style="fill:#263238;" d="M163.495,136.647c0.074,0.6,0.447,1.053,0.834,1.012c0.386-0.041,0.64-0.559,0.566-1.159
			c-0.074-0.6-0.447-1.053-0.834-1.012C163.674,135.529,163.421,136.048,163.495,136.647z"/>
		<path style="fill:#ED847E;" d="M161.407,137.169c0,0,1.772,3.318,3.458,4.831c-0.923,1.1-2.758,0.834-2.758,0.834L161.407,137.169
			z"/>
		<path style="fill:#263238;" d="M160.62,144.496c0.095-0.013,0.161-0.102,0.146-0.199c-0.015-0.097-0.105-0.165-0.2-0.152
			c-2.586,0.35-4.075-1.317-4.09-1.334c-0.066-0.074-0.177-0.082-0.247-0.018c-0.072,0.064-0.078,0.175-0.013,0.249
			C156.281,143.117,157.848,144.871,160.62,144.496z"/>
		<path style="fill:#263238;" d="M154.529,135.374c0.105-0.011,0.203-0.07,0.259-0.169c0.78-1.35,2.066-1.409,2.079-1.409
			c0.182,0.001,0.341-0.17,0.331-0.366c-0.01-0.195-0.176-0.349-0.369-0.342c-0.068,0.002-1.679,0.073-2.647,1.75
			c-0.097,0.168-0.039,0.385,0.128,0.486C154.379,135.366,154.456,135.382,154.529,135.374z"/>
		<path style="fill:#263238;" d="M166.199,133.931c0.05-0.009,0.1-0.028,0.144-0.061c0.155-0.113,0.187-0.334,0.071-0.493
			c-1.156-1.595-2.769-1.546-2.837-1.544c-0.188,0-0.339,0.172-0.327,0.368c0.012,0.195,0.177,0.346,0.369,0.34l0,0
			c0.054-0.002,1.311-0.026,2.235,1.247C165.936,133.901,166.072,133.952,166.199,133.931z"/>
		<path style="fill:#FFC3BD;" d="M129.986,172.832l9.569,5.126c0,0-10.895,23.614-9.475,27.125
			c1.932,4.778,4.987,15.334,8.297,20.535c-0.257,1.205-1.881,4.051-2.88,4.607c-7.627-4.698-16.411-20.726-16.566-25.393
			C118.578,194.194,129.986,172.832,129.986,172.832z"/>
		<path style="fill:#407BFF;" d="M133.84,161.731c-7.004,1.022-14.457,25.379-14.457,25.379l14.967,8.338
			c0,0,6.218-11.584,9.213-20.186C146.702,166.248,141.352,160.634,133.84,161.731z"/>
		<path style="opacity:0.5;" d="M133.84,161.731c-7.004,1.022-14.457,25.379-14.457,25.379l14.967,8.338
			c0,0,6.218-11.584,9.213-20.186C146.702,166.248,141.352,160.634,133.84,161.731z"/>
		<path style="fill:#407BFF;" d="M117.638,396.789c0.536,0.181,1.065,0.259,1.467,0.098c0.319-0.129,0.528-0.389,0.621-0.772
			c0.07-0.285-0.036-0.468-0.137-0.572c-0.645-0.663-3.36-0.029-3.667,0.046c-0.068,0.018-0.119,0.074-0.129,0.145
			c-0.009,0.069,0.023,0.14,0.084,0.178C116.327,396.196,116.987,396.569,117.638,396.789z M119.14,395.676
			c0.087,0.029,0.156,0.067,0.203,0.115c0.038,0.039,0.076,0.1,0.044,0.233c-0.067,0.273-0.202,0.448-0.416,0.534
			c-0.486,0.197-1.419-0.071-2.538-0.718C117.372,395.644,118.601,395.493,119.14,395.676z"/>
		<path style="fill:#407BFF;" d="M115.913,395.93c0.027,0.009,0.057,0.012,0.086,0.007c0.853-0.152,2.744-1.23,2.842-2.072
			c0.018-0.152-0.01-0.436-0.394-0.619c-0.251-0.121-0.51-0.128-0.777-0.025c-1.028,0.397-1.833,2.388-1.867,2.472
			c-0.024,0.06-0.014,0.129,0.028,0.179C115.853,395.899,115.881,395.919,115.913,395.93z M118.229,393.534
			c0.025,0.008,0.049,0.019,0.074,0.031c0.209,0.1,0.196,0.207,0.191,0.252c-0.057,0.497-1.32,1.369-2.217,1.678
			c0.269-0.571,0.865-1.688,1.523-1.943C117.951,393.493,118.092,393.487,118.229,393.534z"/>
		<path style="fill:#407BFF;" d="M173.185,407.325c0.738,0,1.417-0.114,1.794-0.456c0.24-0.217,0.344-0.506,0.308-0.856
			c-0.021-0.209-0.125-0.371-0.301-0.467c-0.913-0.507-3.863,1.01-4.197,1.185c-0.065,0.034-0.101,0.107-0.088,0.181
			c0.012,0.074,0.069,0.133,0.143,0.148C171.476,407.185,172.367,407.325,173.185,407.325z M174.492,405.787
			c0.137,0,0.249,0.021,0.33,0.065c0.071,0.04,0.106,0.096,0.115,0.188c0.024,0.238-0.041,0.423-0.199,0.566
			c-0.447,0.406-1.668,0.474-3.315,0.202C172.44,406.319,173.789,405.787,174.492,405.787z"/>
		<path style="fill:#407BFF;" d="M170.878,407.062c0.025,0,0.049-0.005,0.072-0.015c0.886-0.403,2.624-2.008,2.467-2.85
			c-0.036-0.197-0.183-0.443-0.667-0.491c-0.354-0.044-0.686,0.065-0.969,0.301c-0.926,0.777-1.077,2.777-1.083,2.862
			c-0.004,0.062,0.025,0.122,0.077,0.159C170.805,407.051,170.841,407.062,170.878,407.062z M172.616,404.05
			c0.034,0,0.07,0.003,0.106,0.005c0.318,0.033,0.341,0.157,0.348,0.198c0.094,0.504-1.083,1.766-1.984,2.316
			c0.081-0.584,0.316-1.781,0.924-2.29C172.194,404.126,172.393,404.05,172.616,404.05z"/>
		<path style="fill:#FFC3BD;" d="M137.024,224.663l7.043,0.717l-4.863,7.062c0,0-6.142-0.832-6.434-5.693L137.024,224.663z"/>
		<polygon style="fill:#FFC3BD;" points="148.037,228.106 143.316,234.278 139.204,232.442 144.067,225.38 		"/>
	</g>
</g>
<g id="Nessage">
	<g>
		<g>
			<g>
				<path style="fill:#407BFF;" d="M400.189,224.27l6.959,81.085c0.566,6.598-3.471,12.382-8.973,12.854l-153.858,13.204
					c-5.501,0.472-10.465-4.54-11.032-11.138l-6.959-81.085c-0.136-1.579-0.008-3.121,0.349-4.541
					c1.106-4.526,4.439-7.954,8.624-8.313l153.858-13.204c4.176-0.358,8.053,2.451,9.913,6.712
					C399.665,221.193,400.053,222.681,400.189,224.27z"/>
				<path style="opacity:0.1;" d="M400.189,224.27l6.959,81.085c0.566,6.598-3.471,12.382-8.973,12.854l-153.858,13.204
					c-5.501,0.472-10.465-4.54-11.032-11.138l-6.959-81.085c-0.136-1.579-0.008-3.121,0.349-4.541
					c1.106-4.526,4.439-7.954,8.624-8.313l153.858-13.204c4.176-0.358,8.053,2.451,9.913,6.712
					C399.665,221.193,400.053,222.681,400.189,224.27z"/>
			</g>
			
				<rect x="417.598" y="272.077" transform="matrix(0.9928 -0.12 0.12 0.9928 -29.8592 52.1789)" style="fill:#407BFF;" width="1.096" height="3.679"/>
			
				<rect x="416.068" y="254.41" transform="matrix(0.9928 -0.12 0.12 0.9928 -28.3502 51.9012)" style="fill:#407BFF;" width="1.096" height="13.707"/>
			<path style="fill:#407BFF;" d="M407.078,209.77l10.058,83.157c0.818,6.767-3.128,12.861-8.77,13.543l-157.789,19.086
				c-5.642,0.682-10.927-4.295-11.746-11.062l-10.058-83.156c-0.196-1.619-0.119-3.21,0.197-4.684
				c0.976-4.695,4.282-8.34,8.573-8.859l157.789-19.085c4.283-0.518,8.371,2.233,10.437,6.55
				C406.429,206.624,406.881,208.14,407.078,209.77z"/>
			<path style="opacity:0.1;" d="M405.769,205.258l-71.571,48.193c-7.265,4.892-16.019,5.951-24.241,2.933l-80.987-29.73
				c0.976-4.695,4.282-8.34,8.573-8.859l157.789-19.085C399.615,198.19,403.704,200.941,405.769,205.258z"/>
			<g>
				<path style="fill:#407BFF;" d="M379.071,223.233l-20.565,13.842l-6.723,4.534l-17.587,11.837
					c-7.074,4.775-15.583,5.903-23.609,3.143c-0.208-0.055-0.416-0.132-0.624-0.208l-9.866-3.625l-22.197-8.147l-10.381-3.811
					l-11.761-4.314l-0.843-20.795l-1.873-46.201l90.331-3.668l34.429,26.095l0.361,8.87L379.071,223.233z"/>
				<path style="opacity:0.7;fill:#FAFAFA;" d="M379.071,223.233l-20.565,13.842l-6.723,4.534l-17.587,11.837
					c-7.074,4.775-15.583,5.903-23.609,3.143c-0.208-0.055-0.416-0.132-0.624-0.208l-9.866-3.625l-22.197-8.147l-10.381-3.811
					l-11.761-4.314l-0.843-20.795l-1.873-46.201l90.331-3.668l34.429,26.095l0.361,8.87L379.071,223.233z"/>
				<g style="opacity:0.9;">
					<path style="fill:#FFFFFF;" d="M366.335,201.104l-99.997,4.06c-1.17,0.048-2.166-0.871-2.214-2.041l0,0
						c-0.047-1.17,0.871-2.166,2.041-2.214l99.997-4.06c1.17-0.048,2.166,0.871,2.214,2.041l0,0
						C368.424,200.06,367.505,201.056,366.335,201.104z"/>
					<path style="fill:#FFFFFF;" d="M366.874,214.388l-99.997,4.06c-1.17,0.048-2.166-0.871-2.214-2.041l0,0
						c-0.047-1.17,0.871-2.166,2.041-2.214l99.997-4.06c1.17-0.048,2.167,0.871,2.214,2.041l0,0
						C368.963,213.344,368.045,214.34,366.874,214.388z"/>
					<path style="fill:#FFFFFF;" d="M367.414,227.672l-99.997,4.061c-1.17,0.048-2.166-0.871-2.214-2.041l0,0
						c-0.048-1.17,0.871-2.166,2.041-2.214l99.997-4.06c1.17-0.048,2.167,0.871,2.214,2.041l0,0
						C369.503,226.628,368.584,227.625,367.414,227.672z"/>
					<path style="fill:#FFFFFF;" d="M358.505,237.075l-6.723,4.534l-73.884,3l-10.381-3.811c0.087-0.022,0.175-0.033,0.263-0.033
						L358.505,237.075z"/>
					<path style="fill:#FFFFFF;" d="M331.14,253.621v0.077c0,1.139-0.887,2.091-2.037,2.146l-18.517,0.744
						c-0.208-0.055-0.416-0.132-0.624-0.208l-9.866-3.625l28.833-1.171C330.1,251.54,331.096,252.46,331.14,253.621z"/>
				</g>
				<polygon style="opacity:0.1;fill:#263238;" points="377.802,191.914 353.878,190.881 343.373,165.824 				"/>
				<polygon style="fill:#407BFF;" points="377.802,191.914 354.591,187.936 343.373,165.824 				"/>
			</g>
		</g>
		<g>
			<path style="fill:#407BFF;" d="M423.81,94.934c0,20.332-22.287,40.321-25.631,40.321c-3.343,0-25.631-19.989-25.631-40.321
				c0-13.638,11.475-24.693,25.631-24.693C412.335,70.241,423.81,81.297,423.81,94.934z"/>
			<path style="opacity:0.1;fill:#FFFFFF;" d="M393.421,89.861c-4.638,5.092-10.938,6.907-14.071,4.053
				c-3.133-2.854-1.914-9.296,2.724-14.388c4.638-5.092,10.938-6.907,14.071-4.053C399.279,78.327,398.059,84.768,393.421,89.861z"
				/>
			<path style="opacity:0.1;fill:#FFFFFF;" d="M379.75,110.347c-0.611-1.517-0.451-3.01,0.358-3.336s1.958,0.641,2.569,2.158
				c0.611,1.517,0.451,3.01-0.358,3.336S380.361,111.864,379.75,110.347z"/>
			<path style="fill:#263238;" d="M397.085,199.256c-0.227,0-0.41-0.184-0.41-0.41c0-1.894,0.588-2.848,1.156-3.77
				c0.533-0.863,1.035-1.678,1.035-3.339c0-1.661-0.502-2.476-1.035-3.339c-0.568-0.922-1.156-1.876-1.156-3.77
				c0-1.892,0.588-2.846,1.156-3.768c0.533-0.862,1.035-1.677,1.035-3.336c0-1.658-0.502-2.472-1.035-3.333
				c-0.568-0.921-1.156-1.874-1.156-3.764c0-1.892,0.588-2.844,1.156-3.766c0.533-0.862,1.035-1.676,1.035-3.335
				c0-1.658-0.502-2.472-1.035-3.334c-0.568-0.921-1.156-1.874-1.156-3.766c0-1.891,0.588-2.844,1.156-3.765
				c0.533-0.862,1.035-1.676,1.035-3.334c0-1.658-0.502-2.472-1.035-3.334c-0.568-0.921-1.156-1.874-1.156-3.766
				c0-1.891,0.588-2.843,1.156-3.764c0.533-0.861,1.035-1.675,1.035-3.333c0-0.227,0.184-0.411,0.41-0.411s0.41,0.184,0.41,0.411
				c0,1.891-0.588,2.843-1.156,3.764c-0.532,0.861-1.035,1.675-1.035,3.333c0,1.658,0.502,2.472,1.035,3.334
				c0.568,0.921,1.156,1.874,1.156,3.765c0,1.891-0.588,2.844-1.156,3.766c-0.532,0.862-1.035,1.676-1.035,3.334
				c0,1.659,0.502,2.472,1.035,3.334c0.568,0.921,1.156,1.874,1.156,3.765c0,1.892-0.588,2.845-1.156,3.767
				c-0.532,0.862-1.035,1.676-1.035,3.335c0,1.658,0.502,2.472,1.035,3.333c0.568,0.921,1.156,1.874,1.156,3.764
				c0,1.892-0.588,2.846-1.156,3.768c-0.532,0.862-1.035,1.677-1.035,3.336c0,1.661,0.502,2.476,1.035,3.339
				c0.568,0.922,1.156,1.876,1.156,3.77c0,1.893-0.588,2.848-1.156,3.77c-0.532,0.863-1.035,1.678-1.035,3.339
				C397.495,199.072,397.311,199.256,397.085,199.256z"/>
			<path style="fill:#407BFF;" d="M398.179,134.303c-0.786,0-6.025,4.699-6.025,9.478h12.05
				C404.204,139.001,398.965,134.303,398.179,134.303z"/>
			<path style="fill:#263238;" d="M399.363,135.404h-2.367c-0.191,0-0.347-0.156-0.347-0.347v-0.253
				c0-0.191,0.156-0.347,0.347-0.347h2.367c0.191,0,0.347,0.156,0.347,0.347v0.253C399.71,135.248,399.554,135.404,399.363,135.404z
				"/>
		</g>
		<g>
			<path style="fill:#263238;" d="M262.958,113.937c0,20.332-22.287,40.321-25.631,40.321s-25.631-19.989-25.631-40.321
				c0-13.638,11.475-24.693,25.631-24.693C251.483,89.244,262.958,100.299,262.958,113.937z"/>
			<path style="opacity:0.1;fill:#FFFFFF;" d="M233.212,109.692c-4.638,5.092-10.938,6.907-14.071,4.053
				c-3.133-2.854-1.914-9.295,2.724-14.388s10.938-6.907,14.071-4.053C239.07,98.158,237.85,104.6,233.212,109.692z"/>
			<path style="opacity:0.1;fill:#FFFFFF;" d="M219.541,130.178c-0.611-1.517-0.451-3.01,0.358-3.336
				c0.808-0.325,1.958,0.641,2.569,2.158c0.611,1.517,0.451,3.01-0.358,3.336C221.302,132.661,220.152,131.695,219.541,130.178z"/>
			<path style="fill:#407BFF;" d="M236.233,218.259c-0.227,0-0.41-0.184-0.41-0.411c0-1.893,0.588-2.847,1.156-3.77
				c0.533-0.863,1.035-1.678,1.035-3.339c0-1.661-0.502-2.476-1.035-3.339c-0.568-0.922-1.156-1.876-1.156-3.77
				c0-1.892,0.588-2.846,1.156-3.768c0.533-0.862,1.035-1.677,1.035-3.336c0-1.658-0.502-2.472-1.035-3.333
				c-0.568-0.921-1.156-1.874-1.156-3.764c0-1.892,0.588-2.845,1.156-3.766c0.533-0.862,1.035-1.676,1.035-3.335
				c0-1.658-0.502-2.472-1.035-3.334c-0.568-0.921-1.156-1.874-1.156-3.765c0-1.891,0.588-2.844,1.156-3.766
				c0.533-0.862,1.035-1.676,1.035-3.334c0-1.658-0.502-2.472-1.035-3.334c-0.568-0.921-1.156-1.874-1.156-3.765
				c0-1.891,0.588-2.843,1.156-3.764c0.533-0.861,1.035-1.675,1.035-3.333c0-0.227,0.184-0.411,0.41-0.411
				c0.227,0,0.41,0.184,0.41,0.411c0,1.891-0.588,2.843-1.156,3.764c-0.532,0.861-1.035,1.675-1.035,3.333
				c0,1.658,0.502,2.472,1.035,3.334c0.568,0.921,1.156,1.874,1.156,3.765s-0.588,2.844-1.156,3.765
				c-0.532,0.862-1.035,1.676-1.035,3.334c0,1.658,0.502,2.472,1.035,3.334c0.568,0.921,1.156,1.874,1.156,3.765
				c0,1.892-0.588,2.845-1.156,3.767c-0.532,0.862-1.035,1.676-1.035,3.335c0,1.658,0.502,2.472,1.035,3.333
				c0.568,0.921,1.156,1.874,1.156,3.764c0,1.892-0.588,2.846-1.156,3.768c-0.532,0.862-1.035,1.677-1.035,3.336
				c0,1.661,0.502,2.476,1.035,3.339c0.568,0.922,1.156,1.876,1.156,3.77c0,1.893-0.588,2.847-1.156,3.77
				c-0.532,0.863-1.035,1.678-1.035,3.339C236.643,218.075,236.46,218.259,236.233,218.259z"/>
			<path style="fill:#263238;" d="M237.328,153.306c-0.786,0-6.025,4.699-6.025,9.478h12.05
				C243.353,158.004,238.114,153.306,237.328,153.306z"/>
			<path style="fill:#407BFF;" d="M238.511,154.407h-2.367c-0.191,0-0.347-0.156-0.347-0.347v-0.253
				c0-0.191,0.156-0.347,0.347-0.347h2.367c0.191,0,0.347,0.156,0.347,0.347v0.253C238.858,154.251,238.702,154.407,238.511,154.407
				z"/>
		</g>
	</g>
</g>
</svg>
