<svg width="162" height="144" viewBox="0 0 162 144" fill="none" xmlns="http://www.w3.org/2000/svg">
<g clip-path="url(#clip0_54653_27192)">
<path d="M150.825 88.3805L150.778 88.4013C145.277 92.17 142.947 98.5833 144.905 104.518L144.928 104.56C148.051 113.992 140.313 123.508 129.311 123.758H129.265C122.319 123.925 116.212 127.881 113.905 133.732V133.753C110.222 143.039 97.6828 146.683 88.6159 141.082C82.9859 137.647 75.5433 137.468 69.6199 141.082H69.5967C60.5301 146.662 47.9903 143.039 44.3309 133.732C42.0026 127.866 35.905 123.924 28.971 123.758H28.9243C17.9232 123.508 10.1847 113.992 13.3081 104.559L13.3313 104.518C15.2887 98.583 12.958 92.1698 7.45774 88.401L7.41104 88.3803C-1.32956 82.3831 -1.32956 70.6395 7.41104 64.6426L7.45774 64.6219C12.958 60.8531 15.2887 54.4396 13.3081 48.5052V48.4634C10.1612 39.031 17.9229 29.5149 28.9243 29.2651H28.971C35.8934 29.0985 42.0233 25.1421 44.3309 19.2912V19.2704C47.99 9.98366 60.5301 6.33978 69.5967 11.9413H69.6199C75.3301 15.4602 82.8818 15.4602 88.6159 11.9413C97.774 6.29134 110.244 10.0394 113.905 19.2704V19.2912C116.212 25.1214 122.319 29.0988 129.265 29.2651H129.311C140.313 29.5149 148.051 39.031 144.928 48.4634L144.905 48.5052C142.947 54.4396 145.277 60.8531 150.778 64.6219L150.825 64.6426C159.566 70.6395 159.566 82.3834 150.825 88.3805Z" fill="#3EB655"/>
<path d="M79.1184 115.294C103.097 115.294 122.535 97.9283 122.535 76.5067C122.535 55.0851 103.097 37.7194 79.1184 37.7194C55.1399 37.7194 35.7015 55.0851 35.7015 76.5067C35.7015 97.9283 55.1399 115.294 79.1184 115.294Z" fill="#8BD399"/>
<path opacity="0.1" d="M112.454 51.6783C104.945 46.1592 95.3367 42.8418 84.8628 42.8418C60.8846 42.8418 41.4356 60.2169 41.4356 81.6383C41.4356 90.9953 45.149 99.5787 51.3266 106.288C41.7851 99.1772 35.7075 88.4814 35.7075 76.5061C35.7075 55.0845 55.1399 37.7245 79.1181 37.7245C92.5227 37.7245 104.495 43.154 112.454 51.6783Z" fill="black"/>
<path d="M68.7889 91.6909L59.1879 82.5657C56.6735 80.1755 56.8033 76.4174 59.4779 74.171C62.1525 71.9219 66.361 72.0426 68.8732 74.4312L73.4564 78.7855L92.9376 58.8936C95.3524 56.4249 99.5525 56.1746 102.318 58.3349C105.081 60.4953 105.36 64.2464 102.943 66.715L78.6344 91.5344C76.0448 94.1758 71.4745 94.245 68.7889 91.6909Z" fill="white"/>
</g>
<defs>
<clipPath id="clip0_54653_27192">
<rect width="160.481" height="143.369" fill="white" transform="translate(0.855591 0.315414)"/>
</clipPath>
</defs>
</svg>
