<svg width="162" height="145" viewBox="0 0 162 145" fill="none" xmlns="http://www.w3.org/2000/svg">
<path d="M81 8.53763C71.5813 8.53469 62.2543 10.1898 53.5519 13.4085C44.8495 16.6272 36.9424 21.3463 30.2824 27.2962C23.6224 33.246 18.34 40.31 14.7371 48.0844C11.1343 55.8589 9.28156 64.1914 9.28486 72.6057C9.28156 81.0201 11.1343 89.3526 14.7371 97.127C18.34 104.901 23.6224 111.965 30.2824 117.915C36.9424 123.865 44.8495 128.584 53.5519 131.803C62.2543 135.022 71.5813 136.677 81 136.674C90.4187 136.677 99.7458 135.022 108.448 131.803C117.15 128.584 125.058 123.865 131.718 117.915C138.378 111.965 143.66 104.901 147.263 97.127C150.866 89.3526 152.718 81.0201 152.715 72.6057C152.718 64.1914 150.866 55.8589 147.263 48.0844C143.66 40.31 138.378 33.246 131.718 27.2962C125.058 21.3463 117.15 16.6272 108.448 13.4085C99.7458 10.1898 90.4187 8.53469 81 8.53763ZM81 118.753C78.8554 118.757 76.7576 118.193 74.9724 117.131C73.1872 116.069 71.7948 114.558 70.9719 112.789C70.1489 111.02 69.9322 109.072 70.3494 107.193C70.7666 105.313 71.7988 103.587 73.3152 102.232C74.8317 100.878 76.7642 99.9554 78.8678 99.5827C80.9714 99.21 83.1516 99.4036 85.132 100.139C87.1124 100.874 88.8039 102.118 89.9923 103.713C91.1807 105.308 91.8124 107.182 91.8074 109.098C91.8008 111.657 90.6601 114.109 88.6347 115.918C86.6094 117.728 83.8643 118.747 81 118.753ZM94.1144 39.0036L90.0271 88.2867C90.0016 88.6275 89.8319 88.9467 89.5525 89.1797C89.2731 89.4127 88.9048 89.542 88.5226 89.5412H73.4775C73.0952 89.542 72.727 89.4127 72.4475 89.1797C72.1681 88.9467 71.9984 88.6275 71.9729 88.2867L67.8857 39.0036C67.7749 37.4041 68.0319 35.8013 68.6409 34.2939C69.2498 32.7865 70.1978 31.4065 71.4265 30.2388C72.6551 29.0712 74.1384 28.1407 75.7849 27.5046C77.4314 26.8685 79.2062 26.5404 81 26.5404C82.7939 26.5404 84.5687 26.8685 86.2152 27.5046C87.8617 28.1407 89.3449 29.0712 90.5736 30.2388C91.8022 31.4065 92.7502 32.7865 93.3592 34.2939C93.9681 35.8013 94.2251 37.4041 94.1144 39.0036Z" fill="#FFC048"/>
</svg>
